<?xml version="1.0" encoding="UTF-8" standalone="no"?>
<!DOCTYPE svg PUBLIC "-//W3C//DTD SVG 1.1//EN"
 "http://www.w3.org/Graphics/SVG/1.1/DTD/svg11.dtd">
<!-- Generated by graphviz version 2.40.1 (20161225.0304)
 -->
<!-- Title: controllers_diagram Pages: 1 -->
<svg width="623pt" height="652pt"
 viewBox="0.00 0.00 622.77 652.00" xmlns="http://www.w3.org/2000/svg" xmlns:xlink="http://www.w3.org/1999/xlink">
<g id="graph0" class="graph" transform="scale(1 1) rotate(0) translate(4 648)">
<title>controllers_diagram</title>
<polygon fill="transparent" stroke="transparent" points="-4,4 -4,-648 618.7656,-648 618.7656,4 -4,4"/>
<!-- _diagram_info -->
<g id="node1" class="node">
<title>_diagram_info</title>
<text text-anchor="start" x="98" y="-148.6" font-family="Times,serif" font-size="13.00" fill="#000000">Controllers diagram</text>
<text text-anchor="start" x="98" y="-135.6" font-family="Times,serif" font-size="13.00" fill="#000000">Date: Jul 25 2017 &#45; 19:17</text>
<text text-anchor="start" x="98" y="-122.6" font-family="Times,serif" font-size="13.00" fill="#000000">Migration version: 20170722062300</text>
<text text-anchor="start" x="98" y="-109.6" font-family="Times,serif" font-size="13.00" fill="#000000">Generated by RailRoady 1.5.3</text>
<text text-anchor="start" x="98" y="-96.6" font-family="Times,serif" font-size="13.00" fill="#000000">http://railroady.prestonlee.com</text>
</g>
<!-- ApplicationController -->
<g id="node2" class="node">
<title>ApplicationController</title>
<path fill="none" stroke="#000000" d="M402,-120.5C402,-120.5 575.9316,-120.5 575.9316,-120.5 581.9316,-120.5 587.9316,-126.5 587.9316,-132.5 587.9316,-132.5 587.9316,-198.5 587.9316,-198.5 587.9316,-204.5 581.9316,-210.5 575.9316,-210.5 575.9316,-210.5 402,-210.5 402,-210.5 396,-210.5 390,-204.5 390,-198.5 390,-198.5 390,-132.5 390,-132.5 390,-126.5 396,-120.5 402,-120.5"/>
<text text-anchor="middle" x="488.9658" y="-195.3" font-family="Times,serif" font-size="14.00" fill="#000000">ApplicationController</text>
<polyline fill="none" stroke="#000000" points="390,-188.5 587.9316,-188.5 "/>
<polyline fill="none" stroke="#000000" points="390,-164.5 587.9316,-164.5 "/>
<text text-anchor="start" x="398" y="-149.3" font-family="Times,serif" font-size="14.00" fill="#000000">configure_permitted_parameters</text>
<polyline fill="none" stroke="#000000" points="390,-142.5 587.9316,-142.5 "/>
<text text-anchor="start" x="398" y="-127.3" font-family="Times,serif" font-size="14.00" fill="#000000">_layout</text>
</g>
<!-- BlogsController -->
<g id="node3" class="node">
<title>BlogsController</title>
<path fill="none" stroke="#000000" d="M342,-330.5C342,-330.5 424.2207,-330.5 424.2207,-330.5 430.2207,-330.5 436.2207,-336.5 436.2207,-342.5 436.2207,-342.5 436.2207,-534.5 436.2207,-534.5 436.2207,-540.5 430.2207,-546.5 424.2207,-546.5 424.2207,-546.5 342,-546.5 342,-546.5 336,-546.5 330,-540.5 330,-534.5 330,-534.5 330,-342.5 330,-342.5 330,-336.5 336,-330.5 342,-330.5"/>
<text text-anchor="middle" x="383.1104" y="-531.3" font-family="Times,serif" font-size="14.00" fill="#000000">BlogsController</text>
<polyline fill="none" stroke="#000000" points="330,-524.5 436.2207,-524.5 "/>
<text text-anchor="start" x="338" y="-509.3" font-family="Times,serif" font-size="14.00" fill="#000000">update</text>
<text text-anchor="start" x="338" y="-495.3" font-family="Times,serif" font-size="14.00" fill="#000000">confirm</text>
<text text-anchor="start" x="338" y="-481.3" font-family="Times,serif" font-size="14.00" fill="#000000">create</text>
<text text-anchor="start" x="338" y="-467.3" font-family="Times,serif" font-size="14.00" fill="#000000">destroy</text>
<text text-anchor="start" x="338" y="-453.3" font-family="Times,serif" font-size="14.00" fill="#000000">edit</text>
<text text-anchor="start" x="338" y="-439.3" font-family="Times,serif" font-size="14.00" fill="#000000">index</text>
<text text-anchor="start" x="338" y="-425.3" font-family="Times,serif" font-size="14.00" fill="#000000">new</text>
<text text-anchor="start" x="338" y="-411.3" font-family="Times,serif" font-size="14.00" fill="#000000">set_blog</text>
<text text-anchor="start" x="338" y="-397.3" font-family="Times,serif" font-size="14.00" fill="#000000">show</text>
<text text-anchor="start" x="338" y="-383.3" font-family="Times,serif" font-size="14.00" fill="#000000">blogs_params</text>
<polyline fill="none" stroke="#000000" points="330,-376.5 436.2207,-376.5 "/>
<polyline fill="none" stroke="#000000" points="330,-352.5 436.2207,-352.5 "/>
<text text-anchor="start" x="338" y="-337.3" font-family="Times,serif" font-size="14.00" fill="#000000">_layout</text>
</g>
<!-- CommentsController -->
<g id="node4" class="node">
<title>CommentsController</title>
<path fill="none" stroke="#000000" d="M177,-525.5C177,-525.5 287.2139,-525.5 287.2139,-525.5 293.2139,-525.5 299.2139,-531.5 299.2139,-537.5 299.2139,-537.5 299.2139,-631.5 299.2139,-631.5 299.2139,-637.5 293.2139,-643.5 287.2139,-643.5 287.2139,-643.5 177,-643.5 177,-643.5 171,-643.5 165,-637.5 165,-631.5 165,-631.5 165,-537.5 165,-537.5 165,-531.5 171,-525.5 177,-525.5"/>
<text text-anchor="middle" x="232.1069" y="-628.3" font-family="Times,serif" font-size="14.00" fill="#000000">CommentsController</text>
<polyline fill="none" stroke="#000000" points="165,-621.5 299.2139,-621.5 "/>
<text text-anchor="start" x="173" y="-606.3" font-family="Times,serif" font-size="14.00" fill="#000000">create</text>
<text text-anchor="start" x="173" y="-592.3" font-family="Times,serif" font-size="14.00" fill="#000000">destroy</text>
<polyline fill="none" stroke="#000000" points="165,-585.5 299.2139,-585.5 "/>
<polyline fill="none" stroke="#000000" points="165,-561.5 299.2139,-561.5 "/>
<text text-anchor="start" x="173" y="-546.3" font-family="Times,serif" font-size="14.00" fill="#000000">_layout</text>
<text text-anchor="start" x="173" y="-532.3" font-family="Times,serif" font-size="14.00" fill="#000000">comment_params</text>
</g>
<!-- ContactsController -->
<g id="node5" class="node">
<title>ContactsController</title>
<path fill="none" stroke="#000000" d="M477,-375.5C477,-375.5 575.5381,-375.5 575.5381,-375.5 581.5381,-375.5 587.5381,-381.5 587.5381,-387.5 587.5381,-387.5 587.5381,-495.5 587.5381,-495.5 587.5381,-501.5 581.5381,-507.5 575.5381,-507.5 575.5381,-507.5 477,-507.5 477,-507.5 471,-507.5 465,-501.5 465,-495.5 465,-495.5 465,-387.5 465,-387.5 465,-381.5 471,-375.5 477,-375.5"/>
<text text-anchor="middle" x="526.269" y="-492.3" font-family="Times,serif" font-size="14.00" fill="#000000">ContactsController</text>
<polyline fill="none" stroke="#000000" points="465,-485.5 587.5381,-485.5 "/>
<text text-anchor="start" x="473" y="-470.3" font-family="Times,serif" font-size="14.00" fill="#000000">confirm</text>
<text text-anchor="start" x="473" y="-456.3" font-family="Times,serif" font-size="14.00" fill="#000000">create</text>
<text text-anchor="start" x="473" y="-442.3" font-family="Times,serif" font-size="14.00" fill="#000000">new</text>
<polyline fill="none" stroke="#000000" points="465,-435.5 587.5381,-435.5 "/>
<polyline fill="none" stroke="#000000" points="465,-411.5 587.5381,-411.5 "/>
<text text-anchor="start" x="473" y="-396.3" font-family="Times,serif" font-size="14.00" fill="#000000">_layout</text>
<text text-anchor="start" x="473" y="-382.3" font-family="Times,serif" font-size="14.00" fill="#000000">contacts_params</text>
</g>
<!-- PoemsController -->
<g id="node6" class="node">
<title>PoemsController</title>
<path fill="none" stroke="#000000" d="M12,-270.5C12,-270.5 98.8828,-270.5 98.8828,-270.5 104.8828,-270.5 110.8828,-276.5 110.8828,-282.5 110.8828,-282.5 110.8828,-362.5 110.8828,-362.5 110.8828,-368.5 104.8828,-374.5 98.8828,-374.5 98.8828,-374.5 12,-374.5 12,-374.5 6,-374.5 0,-368.5 0,-362.5 0,-362.5 0,-282.5 0,-282.5 0,-276.5 6,-270.5 12,-270.5"/>
<text text-anchor="middle" x="55.4414" y="-359.3" font-family="Times,serif" font-size="14.00" fill="#000000">PoemsController</text>
<polyline fill="none" stroke="#000000" points="0,-352.5 110.8828,-352.5 "/>
<text text-anchor="start" x="8" y="-337.3" font-family="Times,serif" font-size="14.00" fill="#000000">index</text>
<text text-anchor="start" x="8" y="-323.3" font-family="Times,serif" font-size="14.00" fill="#000000">show</text>
<polyline fill="none" stroke="#000000" points="0,-316.5 110.8828,-316.5 "/>
<polyline fill="none" stroke="#000000" points="0,-292.5 110.8828,-292.5 "/>
<text text-anchor="start" x="8" y="-277.3" font-family="Times,serif" font-size="14.00" fill="#000000">_layout</text>
</g>
<!-- RelationshipsController -->
<g id="node7" class="node">
<title>RelationshipsController</title>
<path fill="none" stroke="#000000" d="M477,-240.5C477,-240.5 602.7656,-240.5 602.7656,-240.5 608.7656,-240.5 614.7656,-246.5 614.7656,-252.5 614.7656,-252.5 614.7656,-332.5 614.7656,-332.5 614.7656,-338.5 608.7656,-344.5 602.7656,-344.5 602.7656,-344.5 477,-344.5 477,-344.5 471,-344.5 465,-338.5 465,-332.5 465,-332.5 465,-252.5 465,-252.5 465,-246.5 471,-240.5 477,-240.5"/>
<text text-anchor="middle" x="539.8828" y="-329.3" font-family="Times,serif" font-size="14.00" fill="#000000">RelationshipsController</text>
<polyline fill="none" stroke="#000000" points="465,-322.5 614.7656,-322.5 "/>
<text text-anchor="start" x="473" y="-307.3" font-family="Times,serif" font-size="14.00" fill="#000000">create</text>
<text text-anchor="start" x="473" y="-293.3" font-family="Times,serif" font-size="14.00" fill="#000000">destroy</text>
<polyline fill="none" stroke="#000000" points="465,-286.5 614.7656,-286.5 "/>
<polyline fill="none" stroke="#000000" points="465,-262.5 614.7656,-262.5 "/>
<text text-anchor="start" x="473" y="-247.3" font-family="Times,serif" font-size="14.00" fill="#000000">_layout</text>
</g>
<!-- TopController -->
<g id="node8" class="node">
<title>TopController</title>
<path fill="none" stroke="#000000" d="M477,-.5C477,-.5 548.1191,-.5 548.1191,-.5 554.1191,-.5 560.1191,-6.5 560.1191,-12.5 560.1191,-12.5 560.1191,-78.5 560.1191,-78.5 560.1191,-84.5 554.1191,-90.5 548.1191,-90.5 548.1191,-90.5 477,-90.5 477,-90.5 471,-90.5 465,-84.5 465,-78.5 465,-78.5 465,-12.5 465,-12.5 465,-6.5 471,-.5 477,-.5"/>
<text text-anchor="middle" x="512.5596" y="-75.3" font-family="Times,serif" font-size="14.00" fill="#000000">TopController</text>
<polyline fill="none" stroke="#000000" points="465,-68.5 560.1191,-68.5 "/>
<text text-anchor="start" x="473" y="-53.3" font-family="Times,serif" font-size="14.00" fill="#000000">index</text>
<polyline fill="none" stroke="#000000" points="465,-46.5 560.1191,-46.5 "/>
<polyline fill="none" stroke="#000000" points="465,-22.5 560.1191,-22.5 "/>
<text text-anchor="start" x="473" y="-7.3" font-family="Times,serif" font-size="14.00" fill="#000000">_layout</text>
</g>
<!-- Users::OmniauthCallbacksController -->
<g id="node9" class="node">
<title>Users::OmniauthCallbacksController</title>
<path fill="none" stroke="#000000" d="M147,-195.5C147,-195.5 347.4072,-195.5 347.4072,-195.5 353.4072,-195.5 359.4072,-201.5 359.4072,-207.5 359.4072,-207.5 359.4072,-287.5 359.4072,-287.5 359.4072,-293.5 353.4072,-299.5 347.4072,-299.5 347.4072,-299.5 147,-299.5 147,-299.5 141,-299.5 135,-293.5 135,-287.5 135,-287.5 135,-207.5 135,-207.5 135,-201.5 141,-195.5 147,-195.5"/>
<text text-anchor="middle" x="247.2036" y="-284.3" font-family="Times,serif" font-size="14.00" fill="#000000">Users::OmniauthCallbacksController</text>
<polyline fill="none" stroke="#000000" points="135,-277.5 359.4072,-277.5 "/>
<text text-anchor="start" x="143" y="-262.3" font-family="Times,serif" font-size="14.00" fill="#000000">facebook</text>
<text text-anchor="start" x="143" y="-248.3" font-family="Times,serif" font-size="14.00" fill="#000000">twitter</text>
<polyline fill="none" stroke="#000000" points="135,-241.5 359.4072,-241.5 "/>
<polyline fill="none" stroke="#000000" points="135,-217.5 359.4072,-217.5 "/>
<text text-anchor="start" x="143" y="-202.3" font-family="Times,serif" font-size="14.00" fill="#000000">_layout</text>
</g>
<!-- Users::RegistrationsController -->
<g id="node10" class="node">
<title>Users::RegistrationsController</title>
<path fill="none" stroke="#000000" d="M117,-405.5C117,-405.5 280.0898,-405.5 280.0898,-405.5 286.0898,-405.5 292.0898,-411.5 292.0898,-417.5 292.0898,-417.5 292.0898,-483.5 292.0898,-483.5 292.0898,-489.5 286.0898,-495.5 280.0898,-495.5 280.0898,-495.5 117,-495.5 117,-495.5 111,-495.5 105,-489.5 105,-483.5 105,-483.5 105,-417.5 105,-417.5 105,-411.5 111,-405.5 117,-405.5"/>
<text text-anchor="middle" x="198.5449" y="-480.3" font-family="Times,serif" font-size="14.00" fill="#000000">Users::RegistrationsController</text>
<polyline fill="none" stroke="#000000" points="105,-473.5 292.0898,-473.5 "/>
<text text-anchor="start" x="113" y="-458.3" font-family="Times,serif" font-size="14.00" fill="#000000">build_resource</text>
<polyline fill="none" stroke="#000000" points="105,-451.5 292.0898,-451.5 "/>
<polyline fill="none" stroke="#000000" points="105,-427.5 292.0898,-427.5 "/>
<text text-anchor="start" x="113" y="-412.3" font-family="Times,serif" font-size="14.00" fill="#000000">_layout</text>
</g>
<!-- UsersController -->
<g id="node11" class="node">
<title>UsersController</title>
<path fill="none" stroke="#000000" d="M342,-.5C342,-.5 423.4277,-.5 423.4277,-.5 429.4277,-.5 435.4277,-6.5 435.4277,-12.5 435.4277,-12.5 435.4277,-78.5 435.4277,-78.5 435.4277,-84.5 429.4277,-90.5 423.4277,-90.5 423.4277,-90.5 342,-90.5 342,-90.5 336,-90.5 330,-84.5 330,-78.5 330,-78.5 330,-12.5 330,-12.5 330,-6.5 336,-.5 342,-.5"/>
<text text-anchor="middle" x="382.7139" y="-75.3" font-family="Times,serif" font-size="14.00" fill="#000000">UsersController</text>
<polyline fill="none" stroke="#000000" points="330,-68.5 435.4277,-68.5 "/>
<text text-anchor="start" x="338" y="-53.3" font-family="Times,serif" font-size="14.00" fill="#000000">index</text>
<polyline fill="none" stroke="#000000" points="330,-46.5 435.4277,-46.5 "/>
<polyline fill="none" stroke="#000000" points="330,-22.5 435.4277,-22.5 "/>
<text text-anchor="start" x="338" y="-7.3" font-family="Times,serif" font-size="14.00" fill="#000000">_layout</text>
</g>
</g>
</svg>
